<svg width="21" height="21" viewBox="0 0 21 21" fill="none" xmlns="http://www.w3.org/2000/svg">
<path d="M7.74995 20.5L7.34995 17.3C7.13328 17.2167 6.92912 17.1167 6.73745 17C6.54578 16.8833 6.35828 16.7583 6.17495 16.625L3.19995 17.875L0.449951 13.125L3.02495 11.175C3.00828 11.0583 2.99995 10.9458 2.99995 10.8375V10.1625C2.99995 10.0542 3.00828 9.94167 3.02495 9.825L0.449951 7.875L3.19995 3.125L6.17495 4.375C6.35828 4.24167 6.54995 4.11667 6.74995 4C6.94995 3.88333 7.14995 3.78333 7.34995 3.7L7.74995 0.5H13.25L13.65 3.7C13.8666 3.78333 14.0708 3.88333 14.2625 4C14.4541 4.11667 14.6416 4.24167 14.825 4.375L17.8 3.125L20.55 7.875L17.975 9.825C17.9916 9.94167 18 10.0542 18 10.1625V10.8375C18 10.9458 17.9833 11.0583 17.95 11.175L20.525 13.125L17.775 17.875L14.825 16.625C14.6416 16.7583 14.45 16.8833 14.25 17C14.05 17.1167 13.85 17.2167 13.65 17.3L13.25 20.5H7.74995ZM9.49995 18.5H11.475L11.825 15.85C12.3416 15.7167 12.8208 15.5208 13.2625 15.2625C13.7041 15.0042 14.1083 14.6917 14.475 14.325L16.95 15.35L17.925 13.65L15.775 12.025C15.8583 11.7917 15.9166 11.5458 15.95 11.2875C15.9833 11.0292 16 10.7667 16 10.5C16 10.2333 15.9833 9.97083 15.95 9.7125C15.9166 9.45417 15.8583 9.20833 15.775 8.975L17.925 7.35L16.95 5.65L14.475 6.7C14.1083 6.31667 13.7041 5.99583 13.2625 5.7375C12.8208 5.47917 12.3416 5.28333 11.825 5.15L11.5 2.5H9.52495L9.17495 5.15C8.65828 5.28333 8.17912 5.47917 7.73745 5.7375C7.29578 5.99583 6.89162 6.30833 6.52495 6.675L4.04995 5.65L3.07495 7.35L5.22495 8.95C5.14162 9.2 5.08328 9.45 5.04995 9.7C5.01662 9.95 4.99995 10.2167 4.99995 10.5C4.99995 10.7667 5.01662 11.025 5.04995 11.275C5.08328 11.525 5.14162 11.775 5.22495 12.025L3.07495 13.65L4.04995 15.35L6.52495 14.3C6.89162 14.6833 7.29578 15.0042 7.73745 15.2625C8.17912 15.5208 8.65828 15.7167 9.17495 15.85L9.49995 18.5ZM10.55 14C11.5166 14 12.3416 13.6583 13.025 12.975C13.7083 12.2917 14.05 11.4667 14.05 10.5C14.05 9.53333 13.7083 8.70833 13.025 8.025C12.3416 7.34167 11.5166 7 10.55 7C9.56662 7 8.73745 7.34167 8.06245 8.025C7.38745 8.70833 7.04995 9.53333 7.04995 10.5C7.04995 11.4667 7.38745 12.2917 8.06245 12.975C8.73745 13.6583 9.56662 14 10.55 14Z" fill="black"/>
</svg>
